<?xml version="1.0" standalone="no"?>
<!DOCTYPE svg PUBLIC "-//W3C//DTD SVG 20010904//EN"
 "http://www.w3.org/TR/2001/REC-SVG-20010904/DTD/svg10.dtd">
<svg version="1.0" xmlns="http://www.w3.org/2000/svg"
 width="600.000000pt" height="600.000000pt" viewBox="0 0 600.000000 600.000000"
 preserveAspectRatio="xMidYMid meet">
<metadata>
Created by potrace 1.16, written by Peter Selinger 2001-2019
</metadata>
<g transform="translate(0.000000,600.000000) scale(0.100000,-0.100000)"
fill="#000000" stroke="none">
<path d="M4745 5285 c-55 -13 -93 -23 -84 -24 8 -1 54 8 102 18 48 10 87 15
87 11 0 -12 -22 -18 -184 -51 -117 -23 -158 -36 -186 -56 -19 -15 -337 -263
-706 -551 -369 -288 -686 -532 -703 -543 -24 -15 -32 -16 -29 -6 2 8 66 63
143 123 369 288 629 491 945 739 190 149 354 274 363 278 10 4 15 12 12 17 -4
7 -23 -2 -48 -23 -23 -18 -85 -67 -137 -107 -104 -81 -890 -699 -1147 -902
l-162 -128 -53 14 -53 15 33 12 c17 8 32 17 32 21 0 12 -89 9 -160 -6 -36 -8
-67 -12 -69 -10 -2 2 7 12 20 23 l24 20 -45 -13 c-64 -19 -113 -41 -130 -57
-32 -31 -114 -92 -98 -74 16 20 15 21 -44 38 -33 10 -63 16 -65 13 -3 -3 4
-18 16 -34 12 -17 21 -33 21 -36 0 -3 -40 -6 -90 -6 -81 0 -112 -9 -77 -23 24
-10 99 -69 94 -74 -3 -3 -21 5 -39 17 l-33 22 27 -24 27 -23 -25 -40 c-31 -49
-66 -126 -60 -132 2 -2 18 27 36 66 34 74 70 119 70 88 0 -9 -5 -19 -10 -22
-24 -15 -70 -124 -66 -157 5 -40 -4 -58 -56 -114 -38 -41 -77 -64 -47 -27 13
15 12 15 -8 2 -30 -18 -13 -27 68 -36 48 -5 69 -12 94 -35 41 -35 53 -35 81 0
20 24 23 25 22 7 0 -11 3 -28 6 -37 9 -20 -29 -62 -49 -54 -7 2 -19 -3 -27
-12 -11 -13 -11 -14 2 -7 8 5 -1 -10 -20 -32 -19 -23 -37 -40 -39 -37 -2 2 3
12 11 21 8 10 18 25 23 33 4 8 -6 -1 -23 -20 -18 -20 -29 -42 -26 -52 3 -9 0
-19 -5 -23 -7 -4 -8 1 -4 11 4 12 3 15 -5 10 -7 -4 -9 -19 -5 -36 5 -26 3 -30
-18 -32 -13 0 -28 -2 -34 -3 -5 -2 -17 -3 -25 -4 -18 -1 -50 -93 -50 -143 0
-23 -6 -38 -15 -42 -8 -3 -15 -13 -15 -22 0 -9 -32 -49 -70 -88 -39 -40 -67
-76 -64 -79 4 -4 -1 -10 -11 -13 -12 -5 -23 -1 -31 11 -15 20 -19 39 -6 32 4
-3 7 10 8 29 0 21 -3 30 -8 22 -5 -9 -8 -7 -9 7 -1 11 -4 4 -8 -15 -3 -19 -4
-55 -1 -80 l5 -45 65 -17 c75 -19 140 -23 140 -8 0 6 -11 10 -25 10 -14 0 -44
9 -66 21 l-41 20 74 75 c40 41 79 73 87 72 9 -2 22 -39 38 -108 33 -151 64
-250 75 -243 6 3 13 2 17 -3 3 -5 18 -17 33 -26 25 -17 27 -16 65 11 50 37 98
90 160 176 53 72 100 122 108 114 2 -3 -19 -35 -48 -71 -29 -36 -71 -91 -95
-122 -81 -105 -197 -176 -446 -272 -155 -61 -241 -110 -278 -159 -16 -21 -11
-20 50 11 41 21 112 44 182 59 123 27 220 44 220 39 0 -2 -35 -21 -78 -43 -43
-21 -115 -66 -160 -100 -83 -62 -99 -71 -86 -49 17 27 -57 -35 -113 -96 -70
-74 -140 -186 -212 -340 -28 -60 -51 -111 -51 -113 0 -2 15 7 33 21 38 29 115
65 139 66 22 0 16 -18 -29 -85 -31 -46 -130 -126 -157 -125 -6 1 1 8 17 16 39
21 34 27 -8 7 -19 -9 -31 -21 -28 -26 3 -6 2 -7 -4 -4 -6 4 -36 1 -67 -5 -41
-9 -52 -14 -39 -20 10 -4 -9 -5 -42 -3 -47 3 -54 2 -30 -5 23 -7 15 -8 -35 -5
-47 3 -58 1 -40 -5 20 -8 17 -9 -18 -6 -23 2 -40 0 -36 -5 5 -9 0 -10 -67 -15
-61 -4 -150 -58 -240 -147 -52 -50 -156 -177 -146 -177 3 0 33 13 68 30 77 35
241 70 364 76 l90 5 -116 -40 c-64 -21 -135 -49 -160 -61 -40 -21 -42 -24 -22
-31 11 -4 65 -11 120 -15 86 -6 102 -10 133 -35 47 -37 125 -66 211 -80 84
-13 198 -2 384 37 146 30 321 54 389 53 l51 0 -50 -18 c-58 -21 -181 -82 -210
-105 -17 -14 -18 -17 -5 -26 35 -26 224 10 562 105 269 76 390 103 396 87 4
-14 80 -16 132 -3 96 25 90 26 90 -24 0 -53 5 -56 130 -83 41 -8 76 -17 78
-18 4 -2 -79 -80 -106 -100 -15 -11 -15 -14 3 -34 27 -30 130 -85 195 -105 83
-24 257 -30 362 -12 129 22 237 79 270 141 6 11 -14 -2 -44 -31 -68 -64 -144
-90 -306 -104 -157 -15 -250 -1 -356 51 -45 22 -91 49 -104 59 l-23 20 48 42
c211 186 632 670 721 828 32 57 21 52 -18 -8 -34 -54 -39 -56 -155 -66 -98 -8
-154 -9 -160 -3 -3 3 3 39 14 79 11 41 23 94 27 119 l8 45 6 -40 5 -40 16 45
c9 25 24 66 34 93 11 31 21 45 28 40 24 -15 54 -13 189 8 105 17 135 25 131
35 -3 8 0 14 6 14 20 0 80 44 84 62 3 9 -4 25 -15 35 -11 10 -26 30 -34 44
l-13 27 49 6 c40 5 67 1 145 -25 52 -17 95 -35 95 -39 0 -5 22 -16 49 -25 55
-18 94 -61 70 -76 -10 -6 -8 -9 9 -9 29 0 28 21 -4 60 l-26 31 28 -5 c16 -3
57 -3 90 0 59 6 61 7 46 25 -9 11 -23 19 -32 18 -10 0 -11 -2 -2 -6 53 -21
-54 -31 -138 -12 -70 15 -240 72 -240 79 0 8 105 50 124 50 7 0 29 11 49 24
19 13 37 22 40 20 2 -2 4 3 4 11 0 19 2 20 -42 -15 -34 -27 -75 -40 -75 -24 0
4 17 26 38 48 76 85 89 103 96 130 9 37 -8 26 -29 -18 -9 -18 -37 -57 -63 -85
l-47 -52 -134 13 -134 13 -14 32 c-7 18 -16 67 -20 108 -7 84 7 134 61 220
l31 50 3 -30 c5 -39 37 -73 80 -85 47 -13 56 -5 26 25 -30 30 -34 61 -5 43 11
-7 24 -22 30 -35 6 -13 15 -23 21 -23 7 0 4 7 -4 16 -23 22 -20 24 17 12 39
-13 67 -36 67 -55 0 -11 -5 -11 -22 -2 -14 7 -9 -1 11 -18 l34 -29 -38 4 -38
5 28 -38 c21 -27 25 -39 16 -44 -9 -6 -6 -15 12 -37 13 -16 23 -35 21 -42 -1
-7 0 -8 3 -2 2 5 9 8 14 4 19 -11 8 14 -16 36 -24 23 -35 47 -15 35 16 -10 12
7 -10 43 -22 35 -14 40 30 17 35 -18 38 -10 10 20 -16 17 -18 27 -11 52 7 23
5 37 -6 55 -10 15 -4 11 16 -9 37 -38 73 -50 104 -35 12 6 16 11 9 11 -7 1
-19 7 -26 13 -20 21 -45 78 -34 78 5 0 12 -9 15 -20 8 -31 26 -24 19 8 -9 36
-50 72 -84 72 l-27 0 24 19 c14 10 31 17 38 14 21 -8 15 15 -6 27 -30 16 -47
12 -81 -16 -28 -24 -33 -25 -47 -11 -8 8 -18 36 -20 61 l-6 46 44 0 c99 0 215
-28 354 -85 77 -32 156 -64 175 -72 20 -8 45 -28 55 -44 11 -16 26 -29 33 -29
19 0 14 17 -10 34 l-22 16 26 0 c14 0 45 -7 68 -15 24 -8 45 -14 47 -11 8 8
-48 36 -59 30 -6 -4 -8 -3 -5 3 6 9 -52 63 -67 63 -18 0 -1 -19 32 -35 36 -19
36 -19 10 -23 -25 -3 -81 17 -303 106 -168 68 -311 86 -490 62 -79 -10 -305
-83 -380 -123 -49 -26 -49 -26 -18 -27 17 0 33 5 35 11 2 6 14 5 33 -5 38 -20
37 -20 69 9 26 24 27 24 21 4 -4 -13 0 -34 11 -55 13 -23 15 -37 8 -42 -14 -9
-57 -82 -52 -87 8 -9 58 47 58 64 0 24 26 34 51 21 13 -7 25 -7 38 -1 16 9 17
7 13 -14 -3 -16 -9 -22 -21 -19 -15 5 -15 4 0 -7 13 -10 15 -17 7 -35 -10 -21
-12 -20 -35 27 -14 28 -27 48 -29 46 -2 -2 5 -21 16 -42 27 -53 25 -110 -6
-197 -29 -80 -49 -113 -139 -238 -64 -88 -108 -180 -140 -289 l-19 -65 -11 50
c-5 27 -15 48 -20 47 -6 -2 -13 -40 -16 -85 -7 -85 -43 -245 -60 -263 -5 -5
-9 5 -9 27 0 59 -16 53 -49 -18 -39 -82 -111 -185 -147 -208 -17 -12 -23 -13
-18 -5 5 8 9 19 10 24 1 6 21 59 44 118 41 106 48 151 13 87 -65 -118 -219
-281 -323 -339 l-41 -23 22 43 c12 24 33 82 46 129 13 47 27 94 30 105 11 35
-25 -2 -58 -60 -16 -27 -29 -47 -29 -43 0 37 26 181 47 253 31 110 74 193 125
245 55 54 39 70 -24 25 -27 -20 -52 -35 -54 -33 -2 2 10 33 26 67 35 73 122
187 150 196 10 3 17 12 14 19 -3 8 10 23 33 37 53 32 94 67 86 72 -5 3 -36 -8
-69 -23 l-62 -28 29 43 c40 60 116 133 164 158 l40 21 -30 6 -29 5 43 35 c24
18 39 36 33 38 -8 2 -8 11 -1 28 13 36 11 41 -6 18 -8 -10 -15 -27 -15 -36 0
-11 -8 -18 -19 -18 -10 0 -25 -8 -32 -17 -12 -14 -12 -16 1 -9 8 4 2 -4 -14
-19 -24 -22 -31 -24 -45 -13 -14 11 -14 11 -3 -4 14 -18 10 -22 -30 -32 -22
-5 -26 -3 -22 9 4 10 0 15 -12 13 -11 0 -64 0 -119 0 l-99 2 34 30 35 29 -50
1 -50 2 34 14 c48 22 263 177 334 243 118 110 248 299 326 479 18 40 52 130
76 200 59 172 120 306 172 382 17 24 17 24 0 11 -23 -18 -78 -117 -113 -204
l-28 -67 -30 29 c-17 16 -49 38 -71 49 l-40 20 39 16 c22 9 46 22 54 28 12 10
11 13 -5 19 -10 4 -34 8 -54 8 -39 1 -82 15 -164 52 l-50 22 29 10 28 9 -48
18 c-115 42 -144 55 -141 65 2 5 257 218 566 472 310 254 569 470 576 480 13
19 135 348 135 364 0 12 -9 11 -125 -16z m-512 -2428 c23 -28 22 -31 -23 -69
-68 -59 -84 -64 -126 -42 -55 29 -57 36 -22 78 23 29 33 34 40 24 6 -10 13 -7
28 13 16 21 25 25 52 21 18 -3 41 -14 51 -25z m47 -541 c107 -9 135 -14 135
-26 0 -22 -90 -51 -175 -57 -85 -6 -179 10 -211 36 -21 17 -21 18 -4 45 17 26
21 27 69 20 28 -3 112 -12 186 -18z m-195 -83 c91 -24 105 -31 105 -53 0 -25
-30 -100 -40 -100 -4 0 -48 32 -99 70 -83 65 -90 73 -78 91 8 14 18 18 32 13
11 -3 47 -13 80 -21z m-52 -81 c39 -33 84 -67 99 -76 22 -15 26 -22 18 -36
-10 -18 -13 -18 -85 6 -48 17 -89 39 -116 63 l-43 38 23 31 c12 18 24 32 27
32 2 0 37 -26 77 -58z"/>
<path d="M3719 2114 c-35 -36 -65 -60 -67 -55 -6 19 -20 13 -119 -54 -53 -35
-99 -62 -101 -60 -3 3 10 35 29 72 19 38 36 72 38 77 4 9 -90 2 -111 -9 -7 -4
-1 5 14 18 15 14 33 27 40 30 7 2 10 8 6 12 -14 15 -118 -66 -118 -93 0 -7 3
-12 8 -10 48 25 88 39 107 36 l22 -3 -28 -60 c-29 -61 -37 -105 -20 -105 6 0
46 24 91 54 45 30 87 53 95 50 22 -9 69 22 110 70 50 61 66 66 53 18 -6 -20
-14 -45 -19 -54 -6 -11 -5 -19 2 -24 14 -8 108 94 108 116 0 8 -18 -5 -40 -30
-28 -31 -39 -38 -35 -24 12 39 15 84 6 89 -4 3 -37 -25 -71 -61z"/>
<path d="M4805 1978 c27 -21 28 -22 22 -107 -7 -98 -30 -193 -88 -371 -81
-246 -245 -630 -270 -630 -7 0 -9 -3 -6 -7 11 -10 43 24 62 66 l17 38 88 13
88 13 36 -28 c33 -25 42 -27 110 -23 41 2 77 6 80 9 4 4 46 441 46 481 0 4 7
8 15 8 11 0 15 11 15 38 l1 37 64 -70 c57 -60 65 -66 65 -45 0 61 -23 158 -51
213 -23 47 -27 62 -17 69 9 5 4 8 -14 8 -20 0 -27 -5 -26 -17 1 -10 0 -31 -1
-48 -2 -29 -2 -29 -17 -10 -10 13 -14 40 -13 82 1 35 3 63 4 63 2 0 26 -15 53
-34 37 -25 47 -37 39 -45 -13 -13 16 -14 46 -2 15 5 9 11 -31 30 -27 13 -63
36 -80 52 -31 29 -32 33 -32 110 l0 81 -36 -4 c-23 -2 -40 3 -47 12 -7 9 -25
21 -42 28 l-30 12 30 -25 c17 -14 26 -25 20 -26 -32 -4 -58 5 -80 27 -13 13
-29 24 -36 24 -6 0 1 -10 16 -22z"/>
<path d="M3583 1897 c-61 -81 -238 -255 -249 -245 -3 4 10 47 30 97 20 50 36
95 36 101 0 21 -19 8 -41 -27 -12 -21 -38 -57 -57 -81 -19 -24 -32 -46 -29
-49 8 -7 29 15 61 62 33 48 33 43 -4 -43 -31 -72 -37 -102 -21 -102 26 0 140
104 262 240 20 23 29 28 24 15 -4 -11 -9 -35 -12 -54 -8 -48 13 -38 57 27 19
28 41 51 48 52 14 0 17 40 2 40 -5 0 -22 -19 -37 -42 -15 -24 -28 -45 -30 -47
-2 -2 -6 -2 -9 2 -3 3 -1 22 6 42 18 54 0 60 -37 12z"/>
</g>
</svg>
